<svg width="167" height="48" viewBox="0 0 167 48" fill="none" xmlns="http://www.w3.org/2000/svg">
<path d="M48 24C48 10.7452 37.2548 0 24 0C10.7452 0 0 10.7452 0 24C0 37.2548 10.7452 48 24 48C37.2548 48 48 37.2548 48 24Z" fill="url(#paint0_linear_8647_100147)"/>
<path fill-rule="evenodd" clip-rule="evenodd" d="M28.1596 11.521H19.8404V19.9277H11.522V28.3345H19.8404V36.4786H28.1596V28.0719H19.8411V19.9278H28.1596V11.521ZM36.4794 19.9277H28.1603V28.3345H36.4794V19.9277Z" fill="black"/>
<path d="M59.5205 23.9995C59.5205 19.479 60.3744 15.5289 62.0827 12.1491C63.8323 8.7271 66.3115 6.08662 69.5194 4.22777C72.769 2.36889 76.5811 1.43945 80.9559 1.43945C84.372 1.43945 87.4344 2.11541 90.1421 3.46732C92.8503 4.81923 95.0376 6.72037 96.7042 9.17067C98.3707 11.621 99.3706 14.4516 99.7037 17.6624H90.3298C89.7883 15.1276 88.6426 13.1419 86.8925 11.7055C85.1847 10.2269 83.0391 9.48756 80.4557 9.48756C76.956 9.48756 74.1855 10.8183 72.144 13.4799C70.1026 16.1415 69.0821 19.648 69.0821 23.9995C69.0821 28.3087 70.1026 31.8152 72.144 34.519C74.1855 37.1806 76.956 38.5113 80.4557 38.5113C83.0391 38.5113 85.1847 37.7932 86.8925 36.3568C88.6426 34.8781 89.7883 32.8713 90.3298 30.3365H99.7037C99.3706 33.5473 98.3707 36.3779 96.7042 38.8282C95.0376 41.2785 92.8503 43.1797 90.1421 44.5316C87.4344 45.8835 84.372 46.5594 80.9559 46.5594C76.5811 46.5594 72.769 45.63 69.5194 43.7711C66.3115 41.9122 63.8323 39.2929 62.0827 35.9131C60.3744 32.4911 59.5205 28.5199 59.5205 23.9995Z" fill="black"/>
<path d="M105.149 46.1794V1.81982H114.524V38.0046H131.897V46.1794H105.149Z" fill="black"/>
<path d="M125.689 1.81982H135.626L146.124 34.6459L156.874 1.81982H166.56L151.749 46.1794H140.563L125.689 1.81982Z" fill="black"/>
<defs>
<linearGradient id="paint0_linear_8647_100147" x1="48" y1="-1.43051e-06" x2="1.43051e-06" y2="48" gradientUnits="userSpaceOnUse">
<stop offset="0.395833" stop-color="#A9FFE0"/>
<stop offset="1" stop-color="#86D5FF"/>
</linearGradient>
</defs>
</svg>
